<?xml version="1.0" standalone="no"?>
<!DOCTYPE svg PUBLIC "-//W3C//DTD SVG 20010904//EN"
 "http://www.w3.org/TR/2001/REC-SVG-20010904/DTD/svg10.dtd">
<svg version="1.0" xmlns="http://www.w3.org/2000/svg"
 width="317.000000pt" height="313.000000pt" viewBox="0 0 317.000000 313.000000"
 preserveAspectRatio="xMidYMid meet">

<g transform="translate(0.000000,313.000000) scale(0.100000,-0.100000)"
fill="#000000" stroke="none">
<path d="M1381 2877 c-77 -29 -140 -107 -155 -190 -17 -91 51 -209 140 -243
l44 -17 0 -63 0 -63 -397 -3 -398 -3 -48 -25 c-59 -30 -122 -96 -150 -158 -17
-38 -22 -72 -25 -169 l-4 -123 -130 0 c-150 0 -187 -11 -213 -66 -14 -29 -16
-71 -13 -299 l3 -265 33 -32 32 -33 144 -3 144 -3 3 -122 c4 -109 7 -128 32
-179 50 -101 143 -165 256 -176 l66 -7 3 -185 c2 -160 5 -187 19 -198 9 -6 22
-12 29 -12 7 0 126 90 265 200 l252 200 479 0 c445 0 481 1 528 19 54 21 105
59 132 100 22 33 22 37 -2 61 -27 27 -34 26 -77 -14 -84 -75 -52 -71 -605 -74
l-497 -3 -213 -169 -213 -169 -3 157 c-1 94 -7 161 -13 169 -8 8 -35 13 -78
13 -118 0 -189 36 -235 120 l-26 49 2 584 3 584 29 42 c16 23 50 54 75 69 l46
27 501 3 c484 3 502 3 519 22 15 17 16 24 7 45 -11 23 -16 25 -87 25 l-75 0 0
63 0 63 38 17 c44 19 97 69 119 110 39 76 24 189 -34 258 -53 63 -175 95 -252
66z m176 -130 c28 -31 33 -44 33 -84 0 -136 -144 -191 -238 -90 -50 53 -34
157 30 197 26 17 45 20 87 17 47 -3 59 -9 88 -40z m-1167 -1277 l0 -250 -130
0 -130 0 0 250 0 250 130 0 130 0 0 -250z"/>
<path d="M1813 2689 c-24 -12 -52 -37 -65 -57 -22 -35 -23 -47 -26 -277 -3
-233 -2 -241 20 -285 13 -25 38 -55 57 -67 32 -22 44 -23 212 -23 l179 0 0
-86 c0 -162 28 -165 183 -19 l111 105 251 0 c245 0 253 1 286 23 19 12 44 42
57 67 21 42 22 56 22 276 0 221 -1 233 -23 275 -16 31 -36 51 -67 67 l-44 22
-556 0 c-543 0 -556 0 -597 -21z m1169 -96 c16 -15 18 -36 18 -247 0 -127 -4
-236 -8 -242 -20 -30 -55 -34 -302 -34 l-252 0 -74 -72 -74 -71 0 49 c0 29 -7
59 -16 72 -15 21 -20 22 -208 22 -180 0 -195 1 -220 21 l-26 20 0 228 c0 189
3 230 16 249 l15 22 556 0 c504 0 558 -2 575 -17z"/>
<path d="M2016 2484 c-19 -18 -21 -45 -4 -62 9 -9 111 -12 400 -12 381 0 387
0 398 21 9 16 8 26 -5 45 l-15 24 -380 0 c-331 0 -381 -2 -394 -16z"/>
<path d="M2022 2268 c-16 -16 -15 -53 2 -67 9 -8 122 -10 396 -9 345 3 384 5
393 20 8 12 8 24 -1 42 l-12 26 -383 0 c-285 0 -386 -3 -395 -12z"/>
<path d="M2451 1894 c-21 -15 -21 -18 -21 -470 l0 -454 -224 0 c-191 0 -227
-2 -240 -16 -20 -19 -20 -35 -2 -60 14 -18 29 -19 348 -19 315 0 335 1 367 20
58 34 75 67 79 149 l4 73 38 12 c22 6 48 23 59 38 20 24 21 38 21 302 0 303 0
305 -60 336 -22 11 -64 15 -165 15 l-135 0 0 28 c0 49 -33 71 -69 46z m334
-424 l0 -245 -132 -3 -133 -3 0 251 0 251 133 -3 132 -3 0 -245z m-125 -409
c0 -77 -14 -91 -86 -91 l-54 0 0 75 0 75 70 0 70 0 0 -59z"/>
<path d="M980 1728 c-51 -27 -78 -60 -90 -112 -10 -45 -5 -63 22 -77 26 -14
68 13 68 44 0 31 40 67 73 67 32 0 67 -35 67 -67 0 -27 40 -56 64 -47 28 11
38 40 26 83 -14 52 -45 90 -94 112 -54 24 -83 24 -136 -3z"/>
<path d="M1819 1741 c-96 -31 -157 -156 -95 -196 33 -22 62 -6 71 37 4 18 14
41 23 51 32 36 112 9 112 -39 0 -23 31 -64 48 -64 4 0 18 7 31 16 20 14 22 23
18 56 -6 46 -40 100 -77 122 -34 19 -97 28 -131 17z"/>
<path d="M1136 1207 c-12 -9 -17 -23 -14 -42 4 -38 56 -68 169 -97 153 -38
369 -13 471 56 42 28 47 59 14 81 -23 15 -27 15 -63 -3 -136 -70 -355 -75
-483 -12 -55 28 -75 31 -94 17z"/>
</g>
</svg>
