<?xml version="1.0" standalone="no"?>
<!DOCTYPE svg PUBLIC "-//W3C//DTD SVG 20010904//EN"
 "http://www.w3.org/TR/2001/REC-SVG-20010904/DTD/svg10.dtd">
<svg version="1.0" xmlns="http://www.w3.org/2000/svg"
 width="153.000000pt" height="161.000000pt" viewBox="0 0 153.000000 161.000000"
 preserveAspectRatio="xMidYMid meet">

<g transform="translate(0.000000,161.000000) scale(0.100000,-0.100000)"
fill="#000000" stroke="none">
<path d="M428 1293 l-318 -207 0 -88 0 -88 30 -6 30 -6 0 -294 0 -294 -30 0
c-29 0 -30 -2 -30 -45 l0 -45 640 0 640 0 0 45 c0 43 -1 45 -30 45 l-30 0 0
294 0 295 28 3 27 3 3 91 3 91 -311 202 c-171 111 -317 204 -323 207 -7 2
-155 -89 -329 -203z m632 -29 c216 -141 300 -201 300 -215 0 -16 -10 -19 -90
-21 -52 -2 -90 -7 -90 -13 0 -6 38 -11 90 -13 l90 -3 0 -29 c0 -28 -2 -30 -39
-30 -45 0 -62 -17 -38 -35 15 -11 17 -44 17 -304 l0 -291 -125 0 -124 0 -3
123 -3 122 -295 0 -295 0 -3 -122 -3 -123 -124 0 -125 0 0 291 c0 260 2 293
17 304 24 18 7 35 -38 35 -37 0 -39 2 -39 30 l0 30 111 0 c84 0 110 3 107 13
-3 8 -37 13 -112 15 -101 3 -107 4 -104 23 2 14 92 78 298 214 162 106 301
194 307 194 7 1 148 -87 313 -195z m-420 -844 l0 -110 -80 0 -80 0 0 103 c0
57 3 107 7 110 3 4 39 7 80 7 l73 0 0 -110z m190 0 l0 -110 -80 0 -80 0 0 110
0 110 80 0 80 0 0 -110z m188 -2 l3 -108 -81 0 -80 0 0 110 0 111 78 -3 77 -3
3 -107z m342 -153 c0 -13 -74 -15 -610 -15 -536 0 -610 2 -610 15 0 13 74 15
610 15 536 0 610 -2 610 -15z"/>
<path d="M800 1209 c-36 -15 -69 -48 -92 -94 -11 -22 -43 -63 -70 -91 -44 -46
-49 -55 -43 -82 5 -25 2 -33 -15 -42 -12 -7 -31 -9 -42 -7 -29 8 -68 -13 -74
-40 -7 -28 39 -101 71 -113 37 -14 75 14 75 55 0 28 45 54 62 37 18 -18 46
-15 84 8 26 17 142 49 176 50 5 0 26 16 48 36 87 79 73 215 -28 272 -42 24
-108 28 -152 11z m137 -39 c46 -28 67 -65 67 -119 0 -33 -7 -57 -23 -79 -29
-41 -43 -48 -130 -66 -40 -8 -87 -24 -105 -36 -19 -11 -38 -20 -45 -20 -6 0
-27 25 -47 55 l-37 55 45 44 c25 23 58 67 74 97 45 84 129 113 201 69z m-303
-289 c3 -5 -10 -19 -28 -32 -25 -17 -34 -30 -33 -49 2 -19 -3 -26 -20 -28 -14
-2 -23 2 -23 9 0 7 -10 23 -22 36 -20 21 -20 25 -6 39 13 13 19 14 36 3 17
-10 24 -9 48 9 32 24 40 26 48 13z"/>
</g>
</svg>
