<?xml version="1.0" standalone="no"?>
<!DOCTYPE svg PUBLIC "-//W3C//DTD SVG 20010904//EN"
 "http://www.w3.org/TR/2001/REC-SVG-20010904/DTD/svg10.dtd">
<svg version="1.0" xmlns="http://www.w3.org/2000/svg"
 width="201.000000pt" height="199.000000pt" viewBox="0 0 201.000000 199.000000"
 preserveAspectRatio="xMidYMid meet">

<g transform="translate(0.000000,199.000000) scale(0.100000,-0.100000)"
fill="#000000" stroke="none">
<path d="M242 1804 c-58 -29 -96 -69 -126 -134 -20 -43 -21 -60 -21 -475 0
-428 0 -430 23 -477 32 -65 99 -123 163 -142 29 -9 59 -16 66 -16 10 0 13 -39
13 -185 0 -173 1 -186 21 -206 45 -45 62 -30 219 186 l146 200 479 5 c460 5
482 6 525 26 25 11 62 40 83 64 74 81 72 65 72 545 0 415 -1 432 -21 475 -30
65 -68 105 -126 134 l-52 26 -706 0 -706 0 -52 -26z m1503 -67 c45 -26 80 -73
96 -129 6 -25 9 -180 7 -436 -3 -434 -2 -423 -65 -486 -60 -62 -53 -61 -578
-64 -304 -2 -484 -7 -491 -13 -7 -6 -72 -95 -146 -199 -73 -104 -135 -189
-138 -190 -3 0 -7 82 -9 182 -3 203 -7 218 -65 218 -38 0 -102 29 -135 60 -13
13 -32 41 -42 64 -17 38 -19 72 -19 451 0 377 2 413 19 450 20 44 50 74 96 98
27 14 111 16 730 16 l700 1 40 -23z"/>
<path d="M975 1648 c-2 -7 -6 -28 -7 -47 -3 -31 -7 -35 -50 -46 -72 -18 -122
-56 -152 -116 -25 -50 -26 -61 -26 -202 l0 -149 -40 -50 c-46 -58 -58 -104
-38 -144 23 -48 60 -66 140 -72 63 -4 76 -8 84 -25 5 -12 25 -32 44 -45 52
-35 104 -26 150 26 34 37 38 39 109 44 70 5 77 8 108 42 43 46 43 82 1 155
-33 55 -33 58 -39 216 -4 137 -8 166 -27 201 -35 68 -115 124 -177 124 -22 0
-25 4 -25 34 0 19 -3 41 -6 50 -7 19 -43 21 -49 4z m137 -175 c18 -10 43 -37
55 -59 20 -35 23 -53 23 -171 l0 -133 -195 0 -195 0 0 123 c1 166 25 219 117
253 51 19 152 12 195 -13z m132 -472 c42 -56 45 -84 14 -105 -19 -13 -61 -16
-255 -16 -127 0 -243 4 -256 9 -47 18 -43 49 15 124 l30 37 208 0 208 0 36
-49z m-208 -196 c-11 -8 -27 -15 -36 -15 -9 0 -25 7 -36 15 -17 13 -15 14 36
14 51 0 53 -1 36 -14z"/>
</g>
</svg>
