<?xml version="1.0" standalone="no"?>
<!DOCTYPE svg PUBLIC "-//W3C//DTD SVG 20010904//EN"
 "http://www.w3.org/TR/2001/REC-SVG-20010904/DTD/svg10.dtd">
<svg version="1.0" xmlns="http://www.w3.org/2000/svg"
 width="199.000000pt" height="203.000000pt" viewBox="0 0 199.000000 203.000000"
 preserveAspectRatio="xMidYMid meet">

<g transform="translate(0.000000,203.000000) scale(0.100000,-0.100000)"
fill="#000000" stroke="none">
<path d="M600 1649 c-212 -121 -391 -225 -397 -231 -10 -8 -13 -97 -13 -382 0
-204 4 -376 8 -382 6 -10 171 -107 651 -384 127 -74 146 -82 170 -73 41 15
775 444 783 456 4 7 8 180 8 384 l0 373 -37 24 c-90 58 -759 436 -773 436 -8
0 -188 -100 -400 -221z m562 64 c138 -79 149 -88 132 -100 -39 -29 -683 -393
-694 -393 -7 0 -80 39 -163 87 -143 83 -148 88 -128 102 63 41 678 390 690
390 7 1 81 -38 163 -86z m542 -320 c-2 -10 -685 -402 -703 -403 -25 0 -332
183 -322 193 5 5 165 98 356 207 l347 198 161 -93 c89 -52 161 -97 161 -102z
m-1086 -262 l352 -203 0 -324 c0 -178 -3 -324 -7 -324 -5 0 -165 92 -358 203
l-350 204 -3 327 c-1 180 1 326 5 323 4 -2 167 -95 361 -206z m1130 -153 l-3
-292 -350 -203 c-192 -112 -353 -203 -358 -203 -4 0 -6 147 -5 326 l3 326 355
203 355 203 3 -33 c2 -19 2 -166 0 -327z"/>
</g>
</svg>
